# xmcd
#
# Track frame offsets:
#	150
#	16087
#	29850
#	43025
#	61112
#	72587
#	88387
#	103682
#	117417
#	136325
#	146837
#	164850
#	177162
#	191850
#	204737
#	218212
#	231812
#	248050
#	261250
#	274950
#
# Disc length: 3807 seconds
# Revision: 0
# Processed by: cddbd v1.5.2PL0 Copyright (c) Steve Scherf et al.
# Submitted via: dBpowerAMP V12.0
#
DISCID=440edd14
DTITLE=John Davis Band, The - Country Guitar - Always on My Mind
DYEAR=1996
DGENRE=Country
TTITLE0=Always on my Mind
TTITLE1=Sea of Heartbreak
TTITLE2=Let's Love the Bad Times
TTITLE3=Wind Beneath My Wings
TTITLE4=The Race is On
TTITLE5=Loving Her Was Easier
TTITLE6=Tonight the Bottle Let Me Down
TTITLE7=Ramblin' Man
TTITLE8=Nothing Can Hurt You
TTITLE9=Excuse Me (I think I've got a heartache)
TTITLE10=For Reasons I've Forgotten
TTITLE11=Loves Gonna Live Here
TTITLE12=Have You Ever Been Lonely
TTITLE13=Blue, Blue Day
TTITLE14=Willin'
TTITLE15=Ruby, Don't Take Your Love to Town
TTITLE16=He Stopped Loving Her Today
TTITLE17=I Don't Care
TTITLE18=My Next Broken Heart
TTITLE19=Ways of A Woman In Love
EXTD=
EXTT0=
EXTT1=
EXTT2=
EXTT3=
EXTT4=
EXTT5=
EXTT6=
EXTT7=
EXTT8=
EXTT9=
EXTT10=
EXTT11=
EXTT12=
EXTT13=
EXTT14=
EXTT15=
EXTT16=
EXTT17=
EXTT18=
EXTT19=
PLAYORDER=
